<?xml version="1.0" encoding="UTF-8" standalone="no"?>
<!DOCTYPE svg PUBLIC "-//W3C//DTD SVG 1.1//EN" "http://www.w3.org/Graphics/SVG/1.1/DTD/svg11.dtd">
<svg width="100%" height="100%" viewBox="0 0 512 512" version="1.1" xmlns="http://www.w3.org/2000/svg" xmlns:xlink="http://www.w3.org/1999/xlink" xml:space="preserve" xmlns:serif="http://www.serif.com/" style="fill-rule:evenodd;clip-rule:evenodd;stroke-linejoin:round;stroke-miterlimit:2;">
    <g>
        <g transform="matrix(1,0,0,1,-11.5,-44)">
            <path d="M463,231.5C463,334.984 378.984,419 275.5,419L144.25,419C113.205,419 88,393.795 88,362.75L88,100.25C88,69.205 113.205,44 144.25,44L275.5,44C378.984,44 463,128.016 463,231.5ZM338,231.5C338,197.005 309.995,169 275.5,169L231.75,169C221.402,169 213,177.402 213,187.75L213,275.25C213,285.598 221.402,294 231.75,294L275.5,294C309.995,294 338,265.995 338,231.5Z" style="fill:white;"/>
        </g>
        <g transform="matrix(1,0,0,1,0,137)">
            <path d="M201,31.125L201,343.875C201,361.053 187.053,375 169.875,375L107.625,375C90.447,375 76.5,361.053 76.5,343.875L76.5,31.125C76.5,13.947 90.447,0 107.625,0L169.875,0C187.053,0 201,13.947 201,31.125Z" style="fill:white;"/>
        </g>
    </g>
    <path d="M357,147.25L357,231.75C357,255.068 338.068,274 314.75,274L227.25,274C203.932,274 185,255.068 185,231.75L185,147.25C185,123.932 203.932,105 227.25,105L314.75,105C338.068,105 357,123.932 357,147.25Z" style="fill:white;"/>
</svg>
